<svg xmlns="http://www.w3.org/2000/svg" xmlns:xlink="http://www.w3.org/1999/xlink" width="500" zoomAndPan="magnify" viewBox="0 0 375 374.999991" height="500" preserveAspectRatio="xMidYMid meet" version="1.0"><defs><g/><clipPath id="825ff524ca"><path d="M 37.058594 141.203125 L 109 141.203125 L 109 211 L 37.058594 211 Z M 37.058594 141.203125 " clip-rule="nonzero"/></clipPath><clipPath id="a2aa12da1b"><path d="M 37.058594 141.203125 L 109.722656 141.203125 L 109.722656 211.316406 L 37.058594 211.316406 Z M 37.058594 141.203125 " clip-rule="nonzero"/></clipPath><clipPath id="883d33f54f"><path d="M 36 170 L 71 170 L 71 211 L 36 211 Z M 36 170 " clip-rule="nonzero"/></clipPath><clipPath id="aec49cd132"><path d="M 32.375 154.390625 L 88.867188 149.207031 L 94.046875 205.699219 L 37.554688 210.878906 Z M 32.375 154.390625 " clip-rule="nonzero"/></clipPath><clipPath id="ad5dd72f2d"><path d="M 32.375 154.390625 L 88.867188 149.207031 L 94.046875 205.699219 L 37.554688 210.878906 Z M 32.375 154.390625 " clip-rule="nonzero"/></clipPath><clipPath id="d4d937523a"><path d="M 34.054688 172.730469 L 71.121094 169.332031 L 74.636719 207.671875 L 37.570312 211.070312 Z M 34.054688 172.730469 " clip-rule="nonzero"/></clipPath><clipPath id="e89289b168"><path d="M 34.054688 172.730469 L 71.121094 169.332031 L 74.601562 207.289062 L 37.535156 210.6875 Z M 34.054688 172.730469 " clip-rule="nonzero"/></clipPath><clipPath id="310684a535"><path d="M 52 154 L 91 154 L 91 181 L 52 181 Z M 52 154 " clip-rule="nonzero"/></clipPath><clipPath id="d67c6b4bcb"><path d="M 32.375 154.390625 L 88.867188 149.207031 L 94.046875 205.699219 L 37.554688 210.878906 Z M 32.375 154.390625 " clip-rule="nonzero"/></clipPath><clipPath id="df68279df3"><path d="M 32.375 154.390625 L 88.867188 149.207031 L 94.046875 205.699219 L 37.554688 210.878906 Z M 32.375 154.390625 " clip-rule="nonzero"/></clipPath><clipPath id="2ac39a8d0e"><path d="M 73 190.367188 L 86 190.367188 L 86 196 L 73 196 Z M 73 190.367188 " clip-rule="nonzero"/></clipPath><clipPath id="e4b1522fb8"><path d="M 73 190.367188 L 86 190.367188 L 86 197 L 73 197 Z M 73 190.367188 " clip-rule="nonzero"/></clipPath><clipPath id="7775888098"><path d="M 66.347656 195 L 79 195 L 79 201 L 66.347656 201 Z M 66.347656 195 " clip-rule="nonzero"/></clipPath><clipPath id="45186bdaa4"><path d="M 66.347656 195 L 80 195 L 80 202 L 66.347656 202 Z M 66.347656 195 " clip-rule="nonzero"/></clipPath><clipPath id="6759ca24f2"><path d="M 78 205 L 91 205 L 91 211.402344 L 78 211.402344 Z M 78 205 " clip-rule="nonzero"/></clipPath><clipPath id="591414367f"><path d="M 90 205 L 102.679688 205 L 102.679688 211 L 90 211 Z M 90 205 " clip-rule="nonzero"/></clipPath><clipPath id="8ee2a78260"><path d="M 89 205 L 102.679688 205 L 102.679688 211.402344 L 89 211.402344 Z M 89 205 " clip-rule="nonzero"/></clipPath><clipPath id="34f888e22e"><path d="M 66.347656 205 L 79 205 L 79 211 L 66.347656 211 Z M 66.347656 205 " clip-rule="nonzero"/></clipPath><clipPath id="d0c5fbdee9"><path d="M 66.347656 205 L 80 205 L 80 211.402344 L 66.347656 211.402344 Z M 66.347656 205 " clip-rule="nonzero"/></clipPath></defs><g clip-path="url(#825ff524ca)"><path fill="#100f0d" d="M 73.378906 141.929688 L 37.890625 165.40625 L 41.71875 171.398438 L 44.53125 169.601562 L 44.53125 210.65625 L 102.230469 210.65625 L 102.230469 169.601562 L 105.042969 171.398438 L 108.867188 165.40625 L 73.378906 141.929688 " fill-opacity="1" fill-rule="nonzero"/></g><g clip-path="url(#a2aa12da1b)"><path fill="#100f0d" d="M 73.378906 141.929688 L 73.003906 141.363281 L 37.515625 164.839844 C 37.207031 165.042969 37.121094 165.457031 37.320312 165.769531 L 41.144531 171.761719 C 41.242188 171.914062 41.398438 172.023438 41.570312 172.058594 C 41.746094 172.097656 41.933594 172.066406 42.082031 171.96875 L 43.851562 170.839844 L 43.851562 210.65625 C 43.851562 210.835938 43.925781 211.011719 44.050781 211.136719 C 44.175781 211.261719 44.351562 211.335938 44.53125 211.335938 L 102.230469 211.335938 C 102.410156 211.335938 102.585938 211.261719 102.710938 211.136719 C 102.835938 211.011719 102.910156 210.835938 102.910156 210.65625 L 102.910156 170.839844 L 104.675781 171.96875 C 104.828125 172.066406 105.011719 172.097656 105.1875 172.058594 C 105.367188 172.019531 105.515625 171.914062 105.613281 171.761719 L 109.441406 165.769531 C 109.640625 165.457031 109.550781 165.042969 109.242188 164.839844 L 73.753906 141.363281 C 73.527344 141.214844 73.234375 141.214844 73.003906 141.363281 L 73.378906 141.929688 L 73.003906 142.496094 L 107.9375 165.601562 L 104.835938 170.460938 L 102.59375 169.027344 C 102.386719 168.898438 102.121094 168.886719 101.90625 169.007812 C 101.6875 169.125 101.550781 169.355469 101.550781 169.601562 L 101.550781 209.980469 L 45.210938 209.980469 L 45.210938 169.601562 C 45.210938 169.355469 45.074219 169.125 44.855469 169.007812 C 44.640625 168.886719 44.375 168.898438 44.164062 169.027344 L 41.925781 170.460938 L 38.824219 165.601562 L 73.753906 142.496094 L 73.378906 141.929688 L 73.003906 142.496094 L 73.378906 141.929688 " fill-opacity="1" fill-rule="nonzero"/></g><g clip-path="url(#883d33f54f)"><g clip-path="url(#aec49cd132)"><g clip-path="url(#ad5dd72f2d)"><g clip-path="url(#d4d937523a)"><g clip-path="url(#e89289b168)"><path fill="#ffffff" d="M 64.09375 170.597656 L 70.757812 176.300781 L 46.269531 208.925781 C 45.203125 210.304688 43.089844 210.5 41.699219 209.34375 L 38.09375 206.265625 C 36.710938 205.195312 36.515625 203.082031 37.671875 201.691406 L 64.09375 170.597656 " fill-opacity="1" fill-rule="nonzero"/></g></g></g></g></g><g clip-path="url(#310684a535)"><g clip-path="url(#d67c6b4bcb)"><g clip-path="url(#df68279df3)"><path fill="#ffffff" d="M 90.242188 174.683594 L 86.097656 179.757812 C 85.253906 180.777344 83.8125 180.910156 82.707031 180.070312 L 81.59375 179.0625 C 80.773438 178.457031 80.316406 177.21875 80.6875 176.589844 C 81.398438 176.011719 81.003906 174.511719 79.441406 173.285156 C 77.222656 171.359375 74.589844 171.515625 73.671875 172.707031 C 73.28125 173.085938 72.054688 174.648438 72.054688 174.648438 L 65.230469 169.046875 L 66.152344 167.933594 C 66.152344 167.933594 66.386719 167.65625 66.835938 167.019531 C 68.605469 164.894531 66.371094 162.878906 66.371094 162.878906 C 60.378906 157.964844 52.679688 158.757812 52.679688 158.757812 L 52.417969 156.816406 C 67.539062 151.417969 74.003906 157.65625 76.3125 159.582031 C 78.433594 161.34375 80.652344 163.191406 81.207031 163.652344 C 82.40625 164.652344 81.59375 167.882812 83.367188 169.515625 C 84.199219 170.207031 85.246094 170.453125 86.003906 170.382812 C 86.785156 169.539062 88.160156 169.671875 88.902344 170.375 L 89.933594 171.300781 C 90.941406 172.148438 91.074219 173.585938 90.242188 174.683594 " fill-opacity="1" fill-rule="nonzero"/></g></g></g><g clip-path="url(#2ac39a8d0e)"><path fill="#ffffff" d="M 83.875 195.84375 L 75.039062 195.84375 C 74.214844 195.84375 73.550781 195.171875 73.550781 194.339844 L 73.550781 192.3125 C 73.550781 191.480469 74.214844 190.804688 75.039062 190.804688 L 83.875 190.804688 C 84.699219 190.804688 85.363281 191.480469 85.363281 192.3125 L 85.363281 194.339844 C 85.363281 195.171875 84.699219 195.84375 83.875 195.84375 " fill-opacity="1" fill-rule="nonzero"/></g><g clip-path="url(#e4b1522fb8)"><path fill="#100f0d" d="M 75.039062 191.246094 C 74.457031 191.246094 73.984375 191.722656 73.984375 192.3125 L 73.984375 194.339844 C 73.984375 194.925781 74.457031 195.40625 75.039062 195.40625 L 83.875 195.40625 C 84.457031 195.40625 84.929688 194.925781 84.929688 194.339844 L 84.929688 192.3125 C 84.929688 191.722656 84.457031 191.246094 83.875 191.246094 Z M 83.875 196.285156 L 75.039062 196.285156 C 73.976562 196.285156 73.117188 195.410156 73.117188 194.339844 L 73.117188 192.3125 C 73.117188 191.238281 73.976562 190.367188 75.039062 190.367188 L 83.875 190.367188 C 84.9375 190.367188 85.796875 191.238281 85.796875 192.3125 L 85.796875 194.339844 C 85.796875 195.410156 84.9375 196.285156 83.875 196.285156 " fill-opacity="1" fill-rule="nonzero"/></g><g clip-path="url(#7775888098)"><path fill="#ffffff" d="M 77.117188 200.882812 L 68.277344 200.882812 C 67.457031 200.882812 66.789062 200.210938 66.789062 199.378906 L 66.789062 197.351562 C 66.789062 196.519531 67.457031 195.84375 68.277344 195.84375 L 77.117188 195.84375 C 77.9375 195.84375 78.605469 196.519531 78.605469 197.351562 L 78.605469 199.378906 C 78.605469 200.210938 77.9375 200.882812 77.117188 200.882812 " fill-opacity="1" fill-rule="nonzero"/></g><g clip-path="url(#45186bdaa4)"><path fill="#100f0d" d="M 68.277344 196.285156 C 67.699219 196.285156 67.226562 196.761719 67.226562 197.351562 L 67.226562 199.378906 C 67.226562 199.964844 67.699219 200.445312 68.277344 200.445312 L 77.117188 200.445312 C 77.699219 200.445312 78.171875 199.964844 78.171875 199.378906 L 78.171875 197.351562 C 78.171875 196.761719 77.699219 196.285156 77.117188 196.285156 Z M 77.117188 201.320312 L 68.277344 201.320312 C 67.21875 201.320312 66.355469 200.449219 66.355469 199.378906 L 66.355469 197.351562 C 66.355469 196.277344 67.21875 195.40625 68.277344 195.40625 L 77.117188 195.40625 C 78.175781 195.40625 79.039062 196.277344 79.039062 197.351562 L 79.039062 199.378906 C 79.039062 200.449219 78.175781 201.320312 77.117188 201.320312 " fill-opacity="1" fill-rule="nonzero"/></g><path fill="#ffffff" d="M 88.933594 200.882812 L 80.09375 200.882812 C 79.273438 200.882812 78.605469 200.210938 78.605469 199.378906 L 78.605469 197.351562 C 78.605469 196.519531 79.273438 195.84375 80.09375 195.84375 L 88.933594 195.84375 C 89.753906 195.84375 90.421875 196.519531 90.421875 197.351562 L 90.421875 199.378906 C 90.421875 200.210938 89.753906 200.882812 88.933594 200.882812 " fill-opacity="1" fill-rule="nonzero"/><path fill="#100f0d" d="M 80.09375 196.285156 C 79.511719 196.285156 79.039062 196.761719 79.039062 197.351562 L 79.039062 199.378906 C 79.039062 199.964844 79.511719 200.445312 80.09375 200.445312 L 88.933594 200.445312 C 89.511719 200.445312 89.984375 199.964844 89.984375 199.378906 L 89.984375 197.351562 C 89.984375 196.761719 89.511719 196.285156 88.933594 196.285156 Z M 88.933594 201.320312 L 80.09375 201.320312 C 79.035156 201.320312 78.171875 200.449219 78.171875 199.378906 L 78.171875 197.351562 C 78.171875 196.277344 79.035156 195.40625 80.09375 195.40625 L 88.933594 195.40625 C 89.992188 195.40625 90.855469 196.277344 90.855469 197.351562 L 90.855469 199.378906 C 90.855469 200.449219 89.992188 201.320312 88.933594 201.320312 " fill-opacity="1" fill-rule="nonzero"/><path fill="#ffffff" d="M 83.023438 205.921875 L 74.1875 205.921875 C 73.363281 205.921875 72.699219 205.246094 72.699219 204.417969 L 72.699219 202.386719 C 72.699219 201.558594 73.363281 200.882812 74.1875 200.882812 L 83.023438 200.882812 C 83.847656 200.882812 84.511719 201.558594 84.511719 202.386719 L 84.511719 204.417969 C 84.511719 205.246094 83.847656 205.921875 83.023438 205.921875 " fill-opacity="1" fill-rule="nonzero"/><path fill="#100f0d" d="M 74.1875 201.320312 C 73.605469 201.320312 73.132812 201.800781 73.132812 202.386719 L 73.132812 204.417969 C 73.132812 205.003906 73.605469 205.480469 74.1875 205.480469 L 83.023438 205.480469 C 83.605469 205.480469 84.078125 205.003906 84.078125 204.417969 L 84.078125 202.386719 C 84.078125 201.800781 83.605469 201.320312 83.023438 201.320312 Z M 83.023438 206.359375 L 74.1875 206.359375 C 73.125 206.359375 72.265625 205.488281 72.265625 204.417969 L 72.265625 202.386719 C 72.265625 201.316406 73.125 200.445312 74.1875 200.445312 L 83.023438 200.445312 C 84.085938 200.445312 84.945312 201.316406 84.945312 202.386719 L 84.945312 204.417969 C 84.945312 205.488281 84.085938 206.359375 83.023438 206.359375 " fill-opacity="1" fill-rule="nonzero"/><path fill="#ffffff" d="M 94.839844 205.921875 L 86 205.921875 C 85.179688 205.921875 84.511719 205.246094 84.511719 204.417969 L 84.511719 202.386719 C 84.511719 201.558594 85.179688 200.882812 86 200.882812 L 94.839844 200.882812 C 95.660156 200.882812 96.328125 201.558594 96.328125 202.386719 L 96.328125 204.417969 C 96.328125 205.246094 95.660156 205.921875 94.839844 205.921875 " fill-opacity="1" fill-rule="nonzero"/><path fill="#100f0d" d="M 86 201.320312 C 85.417969 201.320312 84.945312 201.800781 84.945312 202.386719 L 84.945312 204.417969 C 84.945312 205.003906 85.417969 205.480469 86 205.480469 L 94.839844 205.480469 C 95.421875 205.480469 95.894531 205.003906 95.894531 204.417969 L 95.894531 202.386719 C 95.894531 201.800781 95.421875 201.320312 94.839844 201.320312 Z M 94.839844 206.359375 L 86 206.359375 C 84.941406 206.359375 84.078125 205.488281 84.078125 204.417969 L 84.078125 202.386719 C 84.078125 201.316406 84.941406 200.445312 86 200.445312 L 94.839844 200.445312 C 95.898438 200.445312 96.761719 201.316406 96.761719 202.386719 L 96.761719 204.417969 C 96.761719 205.488281 95.898438 206.359375 94.839844 206.359375 " fill-opacity="1" fill-rule="nonzero"/><path fill="#ffffff" d="M 88.933594 210.960938 L 80.09375 210.960938 C 79.273438 210.960938 78.605469 210.285156 78.605469 209.453125 L 78.605469 207.425781 C 78.605469 206.59375 79.273438 205.921875 80.09375 205.921875 L 88.933594 205.921875 C 89.753906 205.921875 90.421875 206.59375 90.421875 207.425781 L 90.421875 209.453125 C 90.421875 210.285156 89.753906 210.960938 88.933594 210.960938 " fill-opacity="1" fill-rule="nonzero"/><g clip-path="url(#6759ca24f2)"><path fill="#100f0d" d="M 80.09375 206.359375 C 79.511719 206.359375 79.039062 206.839844 79.039062 207.425781 L 79.039062 209.453125 C 79.039062 210.042969 79.511719 210.519531 80.09375 210.519531 L 88.933594 210.519531 C 89.511719 210.519531 89.984375 210.042969 89.984375 209.453125 L 89.984375 207.425781 C 89.984375 206.839844 89.511719 206.359375 88.933594 206.359375 Z M 88.933594 211.398438 L 80.09375 211.398438 C 79.035156 211.398438 78.171875 210.527344 78.171875 209.453125 L 78.171875 207.425781 C 78.171875 206.355469 79.035156 205.480469 80.09375 205.480469 L 88.933594 205.480469 C 89.992188 205.480469 90.855469 206.355469 90.855469 207.425781 L 90.855469 209.453125 C 90.855469 210.527344 89.992188 211.398438 88.933594 211.398438 " fill-opacity="1" fill-rule="nonzero"/></g><g clip-path="url(#591414367f)"><path fill="#ffffff" d="M 100.746094 210.960938 L 91.90625 210.960938 C 91.085938 210.960938 90.421875 210.285156 90.421875 209.453125 L 90.421875 207.425781 C 90.421875 206.59375 91.085938 205.921875 91.90625 205.921875 L 100.746094 205.921875 C 101.570312 205.921875 102.234375 206.59375 102.234375 207.425781 L 102.234375 209.453125 C 102.234375 210.285156 101.570312 210.960938 100.746094 210.960938 " fill-opacity="1" fill-rule="nonzero"/></g><g clip-path="url(#8ee2a78260)"><path fill="#100f0d" d="M 91.90625 206.359375 C 91.328125 206.359375 90.855469 206.839844 90.855469 207.425781 L 90.855469 209.453125 C 90.855469 210.042969 91.328125 210.519531 91.90625 210.519531 L 100.746094 210.519531 C 101.328125 210.519531 101.800781 210.042969 101.800781 209.453125 L 101.800781 207.425781 C 101.800781 206.839844 101.328125 206.359375 100.746094 206.359375 Z M 100.746094 211.398438 L 91.90625 211.398438 C 90.847656 211.398438 89.984375 210.527344 89.984375 209.453125 L 89.984375 207.425781 C 89.984375 206.355469 90.847656 205.480469 91.90625 205.480469 L 100.746094 205.480469 C 101.804688 205.480469 102.667969 206.355469 102.667969 207.425781 L 102.667969 209.453125 C 102.667969 210.527344 101.804688 211.398438 100.746094 211.398438 " fill-opacity="1" fill-rule="nonzero"/></g><g clip-path="url(#34f888e22e)"><path fill="#ffffff" d="M 77.117188 210.960938 L 68.277344 210.960938 C 67.457031 210.960938 66.789062 210.285156 66.789062 209.453125 L 66.789062 207.425781 C 66.789062 206.59375 67.457031 205.921875 68.277344 205.921875 L 77.117188 205.921875 C 77.9375 205.921875 78.605469 206.59375 78.605469 207.425781 L 78.605469 209.453125 C 78.605469 210.285156 77.9375 210.960938 77.117188 210.960938 " fill-opacity="1" fill-rule="nonzero"/></g><g clip-path="url(#d0c5fbdee9)"><path fill="#100f0d" d="M 68.277344 206.359375 C 67.699219 206.359375 67.226562 206.839844 67.226562 207.425781 L 67.226562 209.453125 C 67.226562 210.042969 67.699219 210.519531 68.277344 210.519531 L 77.117188 210.519531 C 77.699219 210.519531 78.171875 210.042969 78.171875 209.453125 L 78.171875 207.425781 C 78.171875 206.839844 77.699219 206.359375 77.117188 206.359375 Z M 77.117188 211.398438 L 68.277344 211.398438 C 67.21875 211.398438 66.355469 210.527344 66.355469 209.453125 L 66.355469 207.425781 C 66.355469 206.355469 67.21875 205.480469 68.277344 205.480469 L 77.117188 205.480469 C 78.175781 205.480469 79.039062 206.355469 79.039062 207.425781 L 79.039062 209.453125 C 79.039062 210.527344 78.175781 211.398438 77.117188 211.398438 " fill-opacity="1" fill-rule="nonzero"/></g><g fill="#000000" fill-opacity="1"><g transform="translate(103.322033, 210.810514)"><g><path d="M 17.46875 -31.765625 C 19.226562 -31.765625 20.722656 -31.515625 21.953125 -31.015625 C 23.179688 -30.515625 24.382812 -29.8125 25.5625 -28.90625 C 25.882812 -28.644531 26.164062 -28.515625 26.40625 -28.515625 C 26.988281 -28.515625 27.367188 -29.394531 27.546875 -31.15625 L 28.5625 -31.15625 C 28.4375 -29.15625 28.375 -25.601562 28.375 -20.5 L 27.375 -20.5 C 27.101562 -22.675781 26.75 -24.332031 26.3125 -25.46875 C 25.875 -26.613281 25.125 -27.613281 24.0625 -28.46875 C 23.332031 -29.175781 22.484375 -29.710938 21.515625 -30.078125 C 20.546875 -30.441406 19.535156 -30.625 18.484375 -30.625 C 15.515625 -30.625 13.3125 -29.175781 11.875 -26.28125 C 10.4375 -23.394531 9.71875 -19.796875 9.71875 -15.484375 C 9.71875 -11.203125 10.46875 -7.625 11.96875 -4.75 C 13.46875 -1.875 15.695312 -0.4375 18.65625 -0.4375 C 19.65625 -0.4375 20.644531 -0.617188 21.625 -0.984375 C 22.601562 -1.359375 23.429688 -1.894531 24.109375 -2.59375 C 25.191406 -3.414062 25.945312 -4.441406 26.375 -5.671875 C 26.800781 -6.910156 27.132812 -8.71875 27.375 -11.09375 L 28.375 -11.09375 C 28.375 -5.78125 28.4375 -2.082031 28.5625 0 L 27.546875 0 C 27.453125 -0.9375 27.320312 -1.601562 27.15625 -2 C 27 -2.394531 26.773438 -2.59375 26.484375 -2.59375 C 26.253906 -2.59375 25.945312 -2.476562 25.5625 -2.25 C 24.238281 -1.3125 22.972656 -0.597656 21.765625 -0.109375 C 20.566406 0.367188 19.117188 0.609375 17.421875 0.609375 C 14.316406 0.609375 11.597656 -0.0195312 9.265625 -1.28125 C 6.929688 -2.539062 5.117188 -4.363281 3.828125 -6.75 C 2.535156 -9.144531 1.890625 -12 1.890625 -15.3125 C 1.890625 -18.539062 2.550781 -21.398438 3.875 -23.890625 C 5.195312 -26.378906 7.035156 -28.3125 9.390625 -29.6875 C 11.753906 -31.070312 14.445312 -31.765625 17.46875 -31.765625 Z M 17.46875 -31.765625 "/></g></g></g><g fill="#000000" fill-opacity="1"><g transform="translate(134.336504, 210.810514)"><g><path d="M 16.1875 -23.359375 C 17.507812 -23.359375 18.507812 -22.960938 19.1875 -22.171875 C 19.863281 -21.378906 20.203125 -20.425781 20.203125 -19.3125 C 20.203125 -18.226562 19.882812 -17.34375 19.25 -16.65625 C 18.613281 -15.96875 17.785156 -15.625 16.765625 -15.625 C 15.765625 -15.625 14.972656 -15.878906 14.390625 -16.390625 C 13.804688 -16.898438 13.515625 -17.582031 13.515625 -18.4375 C 13.515625 -19.84375 14.15625 -20.988281 15.4375 -21.875 C 15.320312 -21.894531 15.148438 -21.90625 14.921875 -21.90625 C 14.617188 -21.90625 14.382812 -21.878906 14.21875 -21.828125 C 13.101562 -21.648438 12.15625 -20.972656 11.375 -19.796875 C 10.59375 -18.628906 10.203125 -17.425781 10.203125 -16.1875 L 10.203125 -4.53125 C 10.203125 -3.1875 10.53125 -2.25 11.1875 -1.71875 C 11.851562 -1.1875 12.90625 -0.921875 14.34375 -0.921875 L 14.34375 0 C 13.9375 0 13.597656 -0.015625 13.328125 -0.046875 C 10.335938 -0.128906 8.34375 -0.171875 7.34375 -0.171875 C 6.550781 -0.171875 4.75 -0.128906 1.9375 -0.046875 C 1.695312 -0.015625 1.40625 0 1.0625 0 L 1.0625 -0.921875 C 2.113281 -0.921875 2.84375 -1.144531 3.25 -1.59375 C 3.664062 -2.050781 3.875 -2.882812 3.875 -4.09375 L 3.875 -17.953125 C 3.875 -19.296875 3.664062 -20.273438 3.25 -20.890625 C 2.84375 -21.515625 2.113281 -21.828125 1.0625 -21.828125 L 1.0625 -22.75 C 2 -22.65625 2.90625 -22.609375 3.78125 -22.609375 C 6.394531 -22.609375 8.535156 -22.816406 10.203125 -23.234375 L 10.203125 -19.140625 C 10.765625 -20.398438 11.570312 -21.414062 12.625 -22.1875 C 13.6875 -22.96875 14.875 -23.359375 16.1875 -23.359375 Z M 16.1875 -23.359375 "/></g></g></g><g fill="#000000" fill-opacity="1"><g transform="translate(154.880845, 210.810514)"><g><path d="M 6.859375 0.3125 C 4.984375 0.3125 3.582031 -0.171875 2.65625 -1.140625 C 1.738281 -2.109375 1.28125 -3.382812 1.28125 -4.96875 C 1.28125 -6.289062 1.625 -7.382812 2.3125 -8.25 C 3 -9.113281 3.832031 -9.78125 4.8125 -10.25 C 5.800781 -10.71875 7.054688 -11.21875 8.578125 -11.75 C 10.191406 -12.300781 11.375 -12.804688 12.125 -13.265625 C 12.875 -13.722656 13.25 -14.347656 13.25 -15.140625 L 13.25 -18.5625 C 13.25 -19.800781 12.960938 -20.765625 12.390625 -21.453125 C 11.816406 -22.140625 10.925781 -22.484375 9.71875 -22.484375 C 8.3125 -22.484375 7.242188 -22.128906 6.515625 -21.421875 C 7.335938 -21.128906 7.972656 -20.691406 8.421875 -20.109375 C 8.878906 -19.523438 9.109375 -18.835938 9.109375 -18.046875 C 9.109375 -17.046875 8.769531 -16.25 8.09375 -15.65625 C 7.414062 -15.070312 6.59375 -14.78125 5.625 -14.78125 C 4.601562 -14.78125 3.8125 -15.101562 3.25 -15.75 C 2.695312 -16.394531 2.421875 -17.203125 2.421875 -18.171875 C 2.421875 -18.992188 2.617188 -19.691406 3.015625 -20.265625 C 3.410156 -20.835938 4.019531 -21.375 4.84375 -21.875 C 5.632812 -22.34375 6.609375 -22.707031 7.765625 -22.96875 C 8.921875 -23.226562 10.191406 -23.359375 11.578125 -23.359375 C 13.015625 -23.359375 14.257812 -23.210938 15.3125 -22.921875 C 16.363281 -22.628906 17.242188 -22.128906 17.953125 -21.421875 C 18.597656 -20.773438 19.03125 -19.984375 19.25 -19.046875 C 19.46875 -18.109375 19.578125 -16.832031 19.578125 -15.21875 L 19.578125 -3.25 C 19.578125 -2.550781 19.640625 -2.050781 19.765625 -1.75 C 19.898438 -1.457031 20.160156 -1.3125 20.546875 -1.3125 C 20.984375 -1.3125 21.507812 -1.5625 22.125 -2.0625 L 22.578125 -1.3125 C 21.253906 -0.226562 19.640625 0.3125 17.734375 0.3125 C 16.117188 0.3125 14.988281 -0.0078125 14.34375 -0.65625 C 13.695312 -1.300781 13.359375 -2.164062 13.328125 -3.25 C 11.859375 -0.875 9.703125 0.3125 6.859375 0.3125 Z M 10.25 -2.515625 C 11.394531 -2.515625 12.394531 -3.113281 13.25 -4.3125 L 13.25 -13.328125 C 12.894531 -12.742188 12.144531 -12.097656 11 -11.390625 C 9.851562 -10.660156 8.988281 -9.925781 8.40625 -9.1875 C 7.820312 -8.457031 7.53125 -7.40625 7.53125 -6.03125 C 7.53125 -4.820312 7.773438 -3.929688 8.265625 -3.359375 C 8.765625 -2.796875 9.425781 -2.515625 10.25 -2.515625 Z M 10.25 -2.515625 "/></g></g></g><g fill="#000000" fill-opacity="1"><g transform="translate(177.668788, 210.810514)"><g><path d="M 12.671875 -34.40625 C 14.492188 -34.40625 16.0625 -33.921875 17.375 -32.953125 C 17.820312 -32.597656 18.179688 -32.132812 18.453125 -31.5625 C 18.734375 -31 18.875 -30.363281 18.875 -29.65625 C 18.875 -28.832031 18.578125 -28.117188 17.984375 -27.515625 C 17.398438 -26.921875 16.65625 -26.625 15.75 -26.625 C 14.75 -26.625 13.941406 -26.898438 13.328125 -27.453125 C 12.710938 -28.015625 12.40625 -28.78125 12.40625 -29.75 C 12.40625 -30.507812 12.625 -31.179688 13.0625 -31.765625 C 13.507812 -32.347656 14.15625 -32.757812 15 -33 C 14.914062 -33.175781 14.734375 -33.320312 14.453125 -33.4375 C 14.171875 -33.550781 13.828125 -33.609375 13.421875 -33.609375 C 12.304688 -33.609375 11.515625 -33.226562 11.046875 -32.46875 C 10.722656 -32.03125 10.5 -31.382812 10.375 -30.53125 C 10.257812 -29.6875 10.203125 -28.410156 10.203125 -26.703125 L 10.203125 -22.703125 L 14.921875 -22.703125 L 14.921875 -21.828125 L 10.203125 -21.828125 L 10.203125 -4.53125 C 10.203125 -3.1875 10.546875 -2.25 11.234375 -1.71875 C 11.929688 -1.1875 12.96875 -0.921875 14.34375 -0.921875 L 14.34375 0 L 13.109375 -0.046875 C 9.859375 -0.128906 7.75 -0.171875 6.78125 -0.171875 C 5.894531 -0.171875 3.988281 -0.113281 1.0625 0 L 1.0625 -0.921875 C 2.113281 -0.921875 2.84375 -1.144531 3.25 -1.59375 C 3.664062 -2.050781 3.875 -2.882812 3.875 -4.09375 L 3.875 -21.828125 L 0.875 -21.828125 L 0.875 -22.703125 L 3.875 -22.703125 C 3.875 -25.253906 4.078125 -27.226562 4.484375 -28.625 C 4.898438 -30.019531 5.617188 -31.210938 6.640625 -32.203125 C 7.285156 -32.847656 8.148438 -33.375 9.234375 -33.78125 C 10.328125 -34.195312 11.472656 -34.40625 12.671875 -34.40625 Z M 12.671875 -34.40625 "/></g></g></g><g fill="#000000" fill-opacity="1"><g transform="translate(193.154028, 210.810514)"><g><path d="M 9.984375 -22.75 L 15.1875 -22.75 L 15.1875 -21.875 L 9.984375 -21.875 L 9.984375 -4.09375 C 9.984375 -3.207031 10.132812 -2.582031 10.4375 -2.21875 C 10.75 -1.851562 11.242188 -1.671875 11.921875 -1.671875 C 13.179688 -1.671875 14.179688 -2.550781 14.921875 -4.3125 L 15.65625 -3.921875 C 14.539062 -0.898438 12.535156 0.609375 9.640625 0.609375 C 7.703125 0.609375 6.234375 0.113281 5.234375 -0.875 C 4.617188 -1.488281 4.203125 -2.257812 3.984375 -3.1875 C 3.765625 -4.113281 3.65625 -5.382812 3.65625 -7 L 3.65625 -21.875 L -0.046875 -21.875 L -0.046875 -22.75 L 3.65625 -22.75 L 3.65625 -28.5625 C 6.082031 -28.5625 8.191406 -29.03125 9.984375 -29.96875 Z M 9.984375 -22.75 "/></g></g></g><g fill="#000000" fill-opacity="1"><g transform="translate(208.639268, 210.810514)"><g><path d="M 13.984375 -2.984375 C 16.390625 -2.984375 18.328125 -4.160156 19.796875 -6.515625 L 20.59375 -6.25 C 20.007812 -4.34375 18.960938 -2.722656 17.453125 -1.390625 C 15.941406 -0.0546875 14.054688 0.609375 11.796875 0.609375 C 8.679688 0.609375 6.207031 -0.378906 4.375 -2.359375 C 2.539062 -4.335938 1.625 -7.257812 1.625 -11.125 C 1.625 -15.09375 2.609375 -18.125 4.578125 -20.21875 C 6.546875 -22.3125 9.15625 -23.359375 12.40625 -23.359375 C 17.925781 -23.359375 20.6875 -20.101562 20.6875 -13.59375 L 8.3125 -13.59375 C 8.28125 -13.15625 8.265625 -12.46875 8.265625 -11.53125 C 8.265625 -9.59375 8.535156 -7.976562 9.078125 -6.6875 C 9.628906 -5.394531 10.335938 -4.453125 11.203125 -3.859375 C 12.066406 -3.273438 12.992188 -2.984375 13.984375 -2.984375 Z M 12.140625 -22.4375 C 11.085938 -22.4375 10.210938 -21.785156 9.515625 -20.484375 C 8.828125 -19.179688 8.398438 -17.164062 8.234375 -14.4375 L 15.140625 -14.4375 C 15.191406 -16.75 14.960938 -18.660156 14.453125 -20.171875 C 13.941406 -21.679688 13.171875 -22.4375 12.140625 -22.4375 Z M 12.140625 -22.4375 "/></g></g></g><g fill="#000000" fill-opacity="1"><g transform="translate(230.811313, 210.810514)"><g><path d="M 22.703125 -4.84375 C 22.703125 -3.488281 22.90625 -2.503906 23.3125 -1.890625 C 23.726562 -1.273438 24.460938 -0.96875 25.515625 -0.96875 L 25.515625 -0.046875 C 24.609375 -0.128906 23.703125 -0.171875 22.796875 -0.171875 C 20.179688 -0.171875 18.039062 0.03125 16.375 0.4375 L 16.375 -3.34375 C 15.375 -0.707031 13.460938 0.609375 10.640625 0.609375 C 7.890625 0.609375 5.695312 -0.390625 4.0625 -2.390625 C 2.4375 -4.398438 1.640625 -7.429688 1.671875 -11.484375 C 1.671875 -14.066406 2.085938 -16.242188 2.921875 -18.015625 C 3.765625 -19.796875 4.925781 -21.128906 6.40625 -22.015625 C 7.882812 -22.910156 9.578125 -23.359375 11.484375 -23.359375 C 13.628906 -23.359375 15.257812 -22.800781 16.375 -21.6875 L 16.375 -29.171875 C 16.375 -30.523438 16.160156 -31.507812 15.734375 -32.125 C 15.304688 -32.738281 14.578125 -33.046875 13.546875 -33.046875 L 13.546875 -33.96875 C 14.484375 -33.875 15.394531 -33.828125 16.28125 -33.828125 C 18.832031 -33.828125 20.972656 -34.035156 22.703125 -34.453125 Z M 12.453125 -1.28125 C 13.421875 -1.28125 14.273438 -1.628906 15.015625 -2.328125 C 15.765625 -3.035156 16.21875 -3.988281 16.375 -5.1875 L 16.375 -20.59375 C 15.632812 -21.59375 14.5625 -22.09375 13.15625 -22.09375 C 11.601562 -22.09375 10.398438 -21.195312 9.546875 -19.40625 C 8.691406 -17.613281 8.28125 -14.941406 8.3125 -11.390625 C 8.28125 -7.816406 8.625 -5.238281 9.34375 -3.65625 C 10.0625 -2.070312 11.097656 -1.28125 12.453125 -1.28125 Z M 12.453125 -1.28125 "/></g></g></g><g fill="#000000" fill-opacity="1"><g transform="translate(257.118623, 210.810514)"><g><path d="M 12.5 -31.71875 C 14.019531 -31.71875 15.234375 -31.570312 16.140625 -31.28125 C 17.054688 -30.988281 17.984375 -30.566406 18.921875 -30.015625 C 19.242188 -29.835938 19.53125 -29.6875 19.78125 -29.5625 C 20.03125 -29.445312 20.242188 -29.390625 20.421875 -29.390625 C 20.679688 -29.390625 20.882812 -29.539062 21.03125 -29.84375 C 21.175781 -30.15625 21.296875 -30.648438 21.390625 -31.328125 L 22.390625 -31.328125 C 22.242188 -29.359375 22.171875 -26.015625 22.171875 -21.296875 L 21.15625 -21.296875 C 21.039062 -22.878906 20.679688 -24.390625 20.078125 -25.828125 C 19.484375 -27.265625 18.632812 -28.429688 17.53125 -29.328125 C 16.4375 -30.222656 15.15625 -30.671875 13.6875 -30.671875 C 12.25 -30.671875 11.082031 -30.265625 10.1875 -29.453125 C 9.289062 -28.648438 8.84375 -27.5625 8.84375 -26.1875 C 8.84375 -25.15625 9.0625 -24.257812 9.5 -23.5 C 9.9375 -22.738281 10.550781 -22.039062 11.34375 -21.40625 C 12.144531 -20.769531 13.363281 -19.910156 15 -18.828125 L 16.40625 -17.859375 C 18.144531 -16.710938 19.507812 -15.710938 20.5 -14.859375 C 21.5 -14.015625 22.3125 -13.023438 22.9375 -11.890625 C 23.570312 -10.765625 23.890625 -9.457031 23.890625 -7.96875 C 23.890625 -6.082031 23.40625 -4.5 22.4375 -3.21875 C 21.46875 -1.945312 20.15625 -0.988281 18.5 -0.34375 C 16.84375 0.289062 15.003906 0.609375 12.984375 0.609375 C 11.335938 0.609375 9.972656 0.460938 8.890625 0.171875 C 7.804688 -0.117188 6.804688 -0.515625 5.890625 -1.015625 C 5.242188 -1.421875 4.75 -1.625 4.40625 -1.625 C 4.132812 -1.625 3.925781 -1.46875 3.78125 -1.15625 C 3.632812 -0.851562 3.519531 -0.363281 3.4375 0.3125 L 2.421875 0.3125 C 2.535156 -1.539062 2.59375 -5.503906 2.59375 -11.578125 L 3.609375 -11.578125 C 3.816406 -8.285156 4.550781 -5.617188 5.8125 -3.578125 C 7.070312 -1.546875 9.003906 -0.53125 11.609375 -0.53125 C 13.191406 -0.53125 14.5 -0.953125 15.53125 -1.796875 C 16.5625 -2.648438 17.078125 -3.867188 17.078125 -5.453125 C 17.078125 -7.097656 16.546875 -8.503906 15.484375 -9.671875 C 14.429688 -10.847656 12.757812 -12.171875 10.46875 -13.640625 C 8.707031 -14.785156 7.296875 -15.78125 6.234375 -16.625 C 5.179688 -17.476562 4.316406 -18.484375 3.640625 -19.640625 C 2.972656 -20.804688 2.640625 -22.148438 2.640625 -23.671875 C 2.640625 -25.429688 3.085938 -26.921875 3.984375 -28.140625 C 4.878906 -29.359375 6.070312 -30.257812 7.5625 -30.84375 C 9.0625 -31.425781 10.707031 -31.71875 12.5 -31.71875 Z M 12.5 -31.71875 "/></g></g></g><g fill="#000000" fill-opacity="1"><g transform="translate(282.810047, 210.810514)"><g><path d="M 6.765625 -34.09375 C 7.992188 -34.09375 8.96875 -33.789062 9.6875 -33.1875 C 10.40625 -32.59375 10.765625 -31.769531 10.765625 -30.71875 C 10.765625 -29.65625 10.40625 -28.820312 9.6875 -28.21875 C 8.96875 -27.625 7.992188 -27.328125 6.765625 -27.328125 C 5.535156 -27.328125 4.5625 -27.625 3.84375 -28.21875 C 3.125 -28.820312 2.765625 -29.65625 2.765625 -30.71875 C 2.765625 -31.769531 3.125 -32.59375 3.84375 -33.1875 C 4.5625 -33.789062 5.535156 -34.09375 6.765625 -34.09375 Z M 10.203125 -4.09375 C 10.203125 -2.882812 10.414062 -2.050781 10.84375 -1.59375 C 11.269531 -1.144531 12 -0.921875 13.03125 -0.921875 L 13.03125 0 C 10.09375 -0.113281 8.140625 -0.171875 7.171875 -0.171875 C 6.265625 -0.171875 4.226562 -0.113281 1.0625 0 L 1.0625 -0.921875 C 2.113281 -0.921875 2.84375 -1.144531 3.25 -1.59375 C 3.664062 -2.050781 3.875 -2.882812 3.875 -4.09375 L 3.875 -17.953125 C 3.875 -19.296875 3.664062 -20.273438 3.25 -20.890625 C 2.84375 -21.515625 2.113281 -21.828125 1.0625 -21.828125 L 1.0625 -22.75 C 2 -22.65625 2.90625 -22.609375 3.78125 -22.609375 C 6.394531 -22.609375 8.535156 -22.816406 10.203125 -23.234375 Z M 10.203125 -4.09375 "/></g></g></g><g fill="#000000" fill-opacity="1"><g transform="translate(296.667571, 210.810514)"><g><path d="M 9.984375 -22.75 L 15.1875 -22.75 L 15.1875 -21.875 L 9.984375 -21.875 L 9.984375 -4.09375 C 9.984375 -3.207031 10.132812 -2.582031 10.4375 -2.21875 C 10.75 -1.851562 11.242188 -1.671875 11.921875 -1.671875 C 13.179688 -1.671875 14.179688 -2.550781 14.921875 -4.3125 L 15.65625 -3.921875 C 14.539062 -0.898438 12.535156 0.609375 9.640625 0.609375 C 7.703125 0.609375 6.234375 0.113281 5.234375 -0.875 C 4.617188 -1.488281 4.203125 -2.257812 3.984375 -3.1875 C 3.765625 -4.113281 3.65625 -5.382812 3.65625 -7 L 3.65625 -21.875 L -0.046875 -21.875 L -0.046875 -22.75 L 3.65625 -22.75 L 3.65625 -28.5625 C 6.082031 -28.5625 8.191406 -29.03125 9.984375 -29.96875 Z M 9.984375 -22.75 "/></g></g></g><g fill="#000000" fill-opacity="1"><g transform="translate(312.1528, 210.810514)"><g><path d="M 13.984375 -2.984375 C 16.390625 -2.984375 18.328125 -4.160156 19.796875 -6.515625 L 20.59375 -6.25 C 20.007812 -4.34375 18.960938 -2.722656 17.453125 -1.390625 C 15.941406 -0.0546875 14.054688 0.609375 11.796875 0.609375 C 8.679688 0.609375 6.207031 -0.378906 4.375 -2.359375 C 2.539062 -4.335938 1.625 -7.257812 1.625 -11.125 C 1.625 -15.09375 2.609375 -18.125 4.578125 -20.21875 C 6.546875 -22.3125 9.15625 -23.359375 12.40625 -23.359375 C 17.925781 -23.359375 20.6875 -20.101562 20.6875 -13.59375 L 8.3125 -13.59375 C 8.28125 -13.15625 8.265625 -12.46875 8.265625 -11.53125 C 8.265625 -9.59375 8.535156 -7.976562 9.078125 -6.6875 C 9.628906 -5.394531 10.335938 -4.453125 11.203125 -3.859375 C 12.066406 -3.273438 12.992188 -2.984375 13.984375 -2.984375 Z M 12.140625 -22.4375 C 11.085938 -22.4375 10.210938 -21.785156 9.515625 -20.484375 C 8.828125 -19.179688 8.398438 -17.164062 8.234375 -14.4375 L 15.140625 -14.4375 C 15.191406 -16.75 14.960938 -18.660156 14.453125 -20.171875 C 13.941406 -21.679688 13.171875 -22.4375 12.140625 -22.4375 Z M 12.140625 -22.4375 "/></g></g></g><g fill="#000000" fill-opacity="1"><g transform="translate(334.324856, 210.810514)"><g><path d="M 9.765625 -23.359375 C 10.878906 -23.359375 11.90625 -23.21875 12.84375 -22.9375 C 13.78125 -22.664062 14.5 -22.351562 15 -22 C 15.289062 -21.789062 15.554688 -21.6875 15.796875 -21.6875 C 16.054688 -21.6875 16.28125 -21.828125 16.46875 -22.109375 C 16.664062 -22.390625 16.796875 -22.789062 16.859375 -23.3125 L 17.78125 -23.3125 C 17.65625 -21.820312 17.59375 -19.242188 17.59375 -15.578125 L 16.671875 -15.578125 C 16.410156 -17.515625 15.832031 -19.132812 14.9375 -20.4375 C 14.039062 -21.738281 12.742188 -22.390625 11.046875 -22.390625 C 10.160156 -22.390625 9.429688 -22.140625 8.859375 -21.640625 C 8.296875 -21.148438 8.015625 -20.460938 8.015625 -19.578125 C 8.015625 -18.578125 8.347656 -17.71875 9.015625 -17 C 9.691406 -16.28125 10.75 -15.410156 12.1875 -14.390625 L 13.46875 -13.46875 C 15.25 -12.113281 16.566406 -10.90625 17.421875 -9.84375 C 18.273438 -8.789062 18.703125 -7.472656 18.703125 -5.890625 C 18.703125 -4.597656 18.328125 -3.453125 17.578125 -2.453125 C 16.828125 -1.460938 15.820312 -0.703125 14.5625 -0.171875 C 13.300781 0.347656 11.910156 0.609375 10.390625 0.609375 C 8.773438 0.609375 7.394531 0.300781 6.25 -0.3125 C 5.3125 -0.78125 4.632812 -1.085938 4.21875 -1.234375 C 3.925781 -1.316406 3.671875 -1.21875 3.453125 -0.9375 C 3.234375 -0.664062 3.066406 -0.25 2.953125 0.3125 L 2.03125 0.3125 C 2.144531 -1.363281 2.203125 -4.296875 2.203125 -8.484375 L 3.125 -8.484375 C 3.707031 -3.085938 5.6875 -0.390625 9.0625 -0.390625 C 9.914062 -0.390625 10.640625 -0.644531 11.234375 -1.15625 C 11.835938 -1.675781 12.140625 -2.460938 12.140625 -3.515625 C 12.140625 -4.335938 11.957031 -5.070312 11.59375 -5.71875 C 11.226562 -6.363281 10.765625 -6.9375 10.203125 -7.4375 C 9.648438 -7.9375 8.816406 -8.625 7.703125 -9.5 C 6.378906 -10.5625 5.375 -11.414062 4.6875 -12.0625 C 4 -12.707031 3.410156 -13.46875 2.921875 -14.34375 C 2.441406 -15.21875 2.203125 -16.203125 2.203125 -17.296875 C 2.203125 -19.171875 2.929688 -20.648438 4.390625 -21.734375 C 5.859375 -22.816406 7.648438 -23.359375 9.765625 -23.359375 Z M 9.765625 -23.359375 "/></g></g></g><g fill="#000000" fill-opacity="1"><g transform="translate(38.865802, 228.493682)"><g><path d="M 0.859375 -12.765625 L 8.84375 -12.765625 L 8.84375 -10.28125 L 3.59375 -10.28125 L 3.59375 -7.96875 L 8.203125 -7.96875 L 8.203125 -5.484375 L 3.59375 -5.484375 L 3.59375 -2.46875 L 8.84375 -2.46875 L 8.84375 0 L 0.859375 0 Z M 0.859375 -12.765625 "/></g></g></g><g fill="#000000" fill-opacity="1"><g transform="translate(62.013769, 228.493682)"><g><path d="M 8.53125 -6.875 L 13.125 0 L 9.84375 0 L 6.875 -4.40625 L 3.921875 0 L 0.625 0 L 5.234375 -6.875 L 1.296875 -12.765625 L 4.578125 -12.765625 L 6.875 -9.328125 L 9.1875 -12.765625 L 12.46875 -12.765625 Z M 8.53125 -6.875 "/></g></g></g><g fill="#000000" fill-opacity="1"><g transform="translate(89.211733, 228.493682)"><g><path d="M 6.359375 -12.765625 C 6.859375 -12.765625 7.328125 -12.664062 7.765625 -12.46875 C 8.210938 -12.269531 8.601562 -12 8.9375 -11.65625 C 9.269531 -11.3125 9.53125 -10.90625 9.71875 -10.4375 C 9.914062 -9.976562 10.015625 -9.488281 10.015625 -8.96875 C 10.015625 -8.4375 9.914062 -7.9375 9.71875 -7.46875 C 9.53125 -7.007812 9.269531 -6.601562 8.9375 -6.25 C 8.601562 -5.90625 8.210938 -5.632812 7.765625 -5.4375 C 7.328125 -5.238281 6.859375 -5.140625 6.359375 -5.140625 L 3.5625 -5.140625 L 3.5625 0 L 0.84375 0 L 0.84375 -12.765625 Z M 6 -7.625 C 6.34375 -7.625 6.644531 -7.753906 6.90625 -8.015625 C 7.164062 -8.273438 7.296875 -8.59375 7.296875 -8.96875 C 7.296875 -9.320312 7.164062 -9.628906 6.90625 -9.890625 C 6.644531 -10.148438 6.34375 -10.28125 6 -10.28125 L 3.5625 -10.28125 L 3.5625 -7.625 Z M 6 -7.625 "/></g></g></g><g fill="#000000" fill-opacity="1"><g transform="translate(112.8817, 228.493682)"><g><path d="M 0.859375 -12.765625 L 8.84375 -12.765625 L 8.84375 -10.28125 L 3.59375 -10.28125 L 3.59375 -7.96875 L 8.203125 -7.96875 L 8.203125 -5.484375 L 3.59375 -5.484375 L 3.59375 -2.46875 L 8.84375 -2.46875 L 8.84375 0 L 0.859375 0 Z M 0.859375 -12.765625 "/></g></g></g><g fill="#000000" fill-opacity="1"><g transform="translate(136.029669, 228.493682)"><g><path d="M 10.03125 -8.96875 C 10.03125 -8.5625 9.972656 -8.171875 9.859375 -7.796875 C 9.742188 -7.429688 9.582031 -7.097656 9.375 -6.796875 C 9.175781 -6.492188 8.929688 -6.222656 8.640625 -5.984375 C 8.347656 -5.753906 8.035156 -5.566406 7.703125 -5.421875 L 11.9375 0 L 8.75 0 L 4.8125 -5.140625 L 3.578125 -5.140625 L 3.578125 0 L 0.84375 0 L 0.84375 -12.765625 L 6.359375 -12.765625 C 6.859375 -12.765625 7.332031 -12.664062 7.78125 -12.46875 C 8.226562 -12.269531 8.617188 -12 8.953125 -11.65625 C 9.285156 -11.3125 9.546875 -10.90625 9.734375 -10.4375 C 9.929688 -9.976562 10.03125 -9.488281 10.03125 -8.96875 Z M 6.015625 -7.625 C 6.359375 -7.625 6.65625 -7.753906 6.90625 -8.015625 C 7.164062 -8.273438 7.296875 -8.59375 7.296875 -8.96875 C 7.296875 -9.320312 7.164062 -9.628906 6.90625 -9.890625 C 6.65625 -10.148438 6.359375 -10.28125 6.015625 -10.28125 L 3.578125 -10.28125 L 3.578125 -7.625 Z M 6.015625 -7.625 "/></g></g></g><g fill="#000000" fill-opacity="1"><g transform="translate(161.841622, 228.493682)"><g><path d="M 0.40625 -12.765625 L 9.640625 -12.765625 L 9.640625 -10.28125 L 6.390625 -10.28125 L 6.390625 0 L 3.671875 0 L 3.671875 -10.28125 L 0.40625 -10.28125 Z M 0.40625 -12.765625 "/></g></g></g><g fill="#000000" fill-opacity="1"><g transform="translate(185.349581, 228.493682)"><g/></g></g><g fill="#000000" fill-opacity="1"><g transform="translate(203.745557, 228.493682)"><g><path d="M 6.015625 -12.765625 C 6.929688 -12.765625 7.742188 -12.59375 8.453125 -12.25 C 9.160156 -11.914062 9.75 -11.460938 10.21875 -10.890625 C 10.695312 -10.316406 11.0625 -9.640625 11.3125 -8.859375 C 11.5625 -8.078125 11.6875 -7.25 11.6875 -6.375 C 11.6875 -5.488281 11.554688 -4.65625 11.296875 -3.875 C 11.035156 -3.101562 10.675781 -2.425781 10.21875 -1.84375 C 9.769531 -1.269531 9.234375 -0.816406 8.609375 -0.484375 C 7.984375 -0.160156 7.300781 0 6.5625 0 L 0.859375 0 L 0.859375 -12.765625 Z M 6.03125 -2.46875 C 6.539062 -2.46875 6.976562 -2.570312 7.34375 -2.78125 C 7.71875 -2.988281 8.023438 -3.269531 8.265625 -3.625 C 8.503906 -3.988281 8.679688 -4.40625 8.796875 -4.875 C 8.910156 -5.34375 8.96875 -5.835938 8.96875 -6.359375 C 8.96875 -6.867188 8.910156 -7.359375 8.796875 -7.828125 C 8.691406 -8.304688 8.519531 -8.722656 8.28125 -9.078125 C 8.039062 -9.441406 7.734375 -9.734375 7.359375 -9.953125 C 6.984375 -10.171875 6.539062 -10.28125 6.03125 -10.28125 L 3.59375 -10.28125 L 3.59375 -2.46875 Z M 6.03125 -2.46875 "/></g></g></g><g fill="#000000" fill-opacity="1"><g transform="translate(229.485514, 228.493682)"><g><path d="M 0.859375 -12.765625 L 8.84375 -12.765625 L 8.84375 -10.28125 L 3.59375 -10.28125 L 3.59375 -7.96875 L 8.203125 -7.96875 L 8.203125 -5.484375 L 3.59375 -5.484375 L 3.59375 -2.46875 L 8.84375 -2.46875 L 8.84375 0 L 0.859375 0 Z M 0.859375 -12.765625 "/></g></g></g><g fill="#000000" fill-opacity="1"><g transform="translate(252.633478, 228.493682)"><g><path d="M 8.96875 -6.5625 C 9.46875 -6.269531 9.847656 -5.890625 10.109375 -5.421875 C 10.378906 -4.953125 10.515625 -4.410156 10.515625 -3.796875 C 10.515625 -3.222656 10.375 -2.6875 10.09375 -2.1875 C 9.820312 -1.6875 9.429688 -1.242188 8.921875 -0.859375 C 8.472656 -0.515625 7.957031 -0.25 7.375 -0.0625 C 6.789062 0.125 6.175781 0.222656 5.53125 0.234375 C 4.875 0.234375 4.253906 0.144531 3.671875 -0.03125 C 3.085938 -0.21875 2.566406 -0.488281 2.109375 -0.84375 C 1.421875 -1.363281 0.953125 -1.988281 0.703125 -2.71875 L 3.21875 -3.890625 C 3.21875 -3.765625 3.257812 -3.613281 3.34375 -3.4375 C 3.425781 -3.257812 3.554688 -3.082031 3.734375 -2.90625 C 3.921875 -2.738281 4.15625 -2.59375 4.4375 -2.46875 C 4.726562 -2.351562 5.085938 -2.296875 5.515625 -2.296875 C 5.847656 -2.296875 6.140625 -2.335938 6.390625 -2.421875 C 6.648438 -2.515625 6.867188 -2.625 7.046875 -2.75 C 7.222656 -2.875 7.351562 -3.015625 7.4375 -3.171875 C 7.53125 -3.335938 7.578125 -3.503906 7.578125 -3.671875 C 7.578125 -3.859375 7.515625 -4.035156 7.390625 -4.203125 C 7.265625 -4.378906 7.066406 -4.515625 6.796875 -4.609375 C 6.316406 -4.773438 5.8125 -4.914062 5.28125 -5.03125 C 4.75 -5.144531 4.226562 -5.285156 3.71875 -5.453125 C 3.21875 -5.628906 2.75 -5.863281 2.3125 -6.15625 C 1.882812 -6.445312 1.546875 -6.847656 1.296875 -7.359375 C 1.066406 -7.816406 0.953125 -8.300781 0.953125 -8.8125 C 0.953125 -9.394531 1.085938 -9.953125 1.359375 -10.484375 C 1.628906 -11.023438 2 -11.484375 2.46875 -11.859375 C 2.90625 -12.210938 3.398438 -12.476562 3.953125 -12.65625 C 4.503906 -12.84375 5.085938 -12.9375 5.703125 -12.9375 C 6.316406 -12.9375 6.898438 -12.847656 7.453125 -12.671875 C 8.015625 -12.492188 8.519531 -12.226562 8.96875 -11.875 C 9.394531 -11.550781 9.734375 -11.175781 9.984375 -10.75 L 7.9375 -9.34375 C 7.6875 -9.6875 7.367188 -9.960938 6.984375 -10.171875 C 6.609375 -10.390625 6.1875 -10.5 5.71875 -10.5 C 5.070312 -10.5 4.570312 -10.351562 4.21875 -10.0625 C 3.863281 -9.769531 3.6875 -9.390625 3.6875 -8.921875 C 3.6875 -8.710938 3.785156 -8.519531 3.984375 -8.34375 C 4.179688 -8.175781 4.4375 -8.023438 4.75 -7.890625 C 5.070312 -7.765625 5.429688 -7.648438 5.828125 -7.546875 C 6.222656 -7.441406 6.613281 -7.335938 7 -7.234375 C 7.394531 -7.140625 7.765625 -7.035156 8.109375 -6.921875 C 8.460938 -6.816406 8.75 -6.695312 8.96875 -6.5625 Z M 8.96875 -6.5625 "/></g></g></g><g fill="#000000" fill-opacity="1"><g transform="translate(277.167435, 228.493682)"><g><path d="M 5.484375 -12.765625 L 5.484375 -10.453125 L 4.53125 -10.453125 L 4.53125 -2.28125 L 5.484375 -2.28125 L 5.484375 0 L 0.84375 0 L 0.84375 -2.28125 L 1.796875 -2.28125 L 1.796875 -10.453125 L 0.84375 -10.453125 L 0.84375 -12.765625 Z M 5.484375 -12.765625 "/></g></g></g><g fill="#000000" fill-opacity="1"><g transform="translate(296.931426, 228.493682)"><g><path d="M 7.15625 -7.21875 L 11.984375 -7.21875 L 11.984375 -2.53125 C 11.265625 -1.625 10.46875 -0.9375 9.59375 -0.46875 C 8.71875 0 7.800781 0.234375 6.84375 0.234375 C 5.976562 0.234375 5.160156 0.0546875 4.390625 -0.296875 C 3.617188 -0.648438 2.953125 -1.125 2.390625 -1.71875 C 1.828125 -2.320312 1.378906 -3.019531 1.046875 -3.8125 C 0.722656 -4.613281 0.5625 -5.46875 0.5625 -6.375 C 0.5625 -7.269531 0.722656 -8.113281 1.046875 -8.90625 C 1.378906 -9.695312 1.828125 -10.390625 2.390625 -10.984375 C 2.953125 -11.585938 3.617188 -12.0625 4.390625 -12.40625 C 5.160156 -12.757812 5.976562 -12.9375 6.84375 -12.9375 C 7.65625 -12.9375 8.421875 -12.785156 9.140625 -12.484375 C 9.867188 -12.191406 10.578125 -11.695312 11.265625 -11 L 9.6875 -9.078125 C 9.175781 -9.546875 8.695312 -9.859375 8.25 -10.015625 C 7.8125 -10.179688 7.347656 -10.265625 6.859375 -10.265625 C 6.359375 -10.265625 5.882812 -10.160156 5.4375 -9.953125 C 5 -9.742188 4.617188 -9.46875 4.296875 -9.125 C 3.972656 -8.78125 3.71875 -8.367188 3.53125 -7.890625 C 3.351562 -7.421875 3.265625 -6.914062 3.265625 -6.375 C 3.265625 -5.832031 3.351562 -5.328125 3.53125 -4.859375 C 3.71875 -4.390625 3.972656 -3.976562 4.296875 -3.625 C 4.617188 -3.269531 5 -2.988281 5.4375 -2.78125 C 5.882812 -2.582031 6.359375 -2.484375 6.859375 -2.484375 C 7.304688 -2.484375 7.75 -2.5625 8.1875 -2.71875 C 8.625 -2.882812 9.0625 -3.15625 9.5 -3.53125 L 9.5 -4.90625 L 7.15625 -4.90625 Z M 7.15625 -7.21875 "/></g></g></g><g fill="#000000" fill-opacity="1"><g transform="translate(322.977399, 228.493682)"><g><path d="M 9.578125 -12.765625 L 12.296875 -12.765625 L 12.296875 0 L 9.703125 0 L 3.5625 -8.328125 L 3.5625 0 L 0.84375 0 L 0.84375 -12.765625 L 3.40625 -12.765625 L 9.578125 -4.375 Z M 9.578125 -12.765625 "/></g></g></g></svg>